<?xml version="1.0" encoding="UTF-8"?>
<svg xmlns="http://www.w3.org/2000/svg" viewBox="0 0 306.5 275.75">
  <defs>
    <style>
      .cls-1 {
        fill: #ffb27d;
      }

      .cls-2 {
        stroke-width: .52px;
      }

      .cls-2, .cls-3, .cls-4 {
        fill: none;
        mix-blend-mode: multiply;
        opacity: .5;
        stroke: #000;
        stroke-linecap: round;
        stroke-miterlimit: 10;
      }

      .cls-3 {
        stroke-width: .64px;
      }

      .cls-5 {
        fill: #fff;
        opacity: .75;
      }

      .cls-6 {
        fill: #61d4d4;
      }

      .cls-4 {
        stroke-width: .78px;
      }

      .cls-7 {
        isolation: isolate;
      }

      .cls-8 {
        fill: #fd0;
      }

      .cls-9 {
        fill: #a26ef4;
      }
    </style>
  </defs>
  <g class="cls-7">
    <g id="Layer_1">
      <g>
        <path class="cls-8" d="M258.87,257.26s-3.49-24.12-7.99-28.19c-4.26-3.86-19.88-7.19-19.88-7.19,0,0,15.37-3.73,19.34-8.27,3.45-3.93,7.1-24.72,7.1-24.72,0,0,5.01,20.24,8.9,23.93s18.1,8.16,18.1,8.16c0,0-13.81,3.84-17.55,7.54-4.43,4.38-8.03,28.75-8.03,28.75Z"/>
        <path class="cls-8" d="M224.1,268.09s-1.64-11.35-3.76-13.26c-2-1.81-9.35-3.38-9.35-3.38,0,0,7.23-1.75,9.1-3.89,1.62-1.85,3.34-11.63,3.34-11.63,0,0,2.36,9.52,4.19,11.26,1.91,1.81,8.51,3.84,8.51,3.84,0,0-6.5,1.81-8.26,3.55-2.09,2.06-3.78,13.52-3.78,13.52Z"/>
        <path class="cls-8" d="M236.3,214.91s-.93-6.45-2.14-7.54c-1.14-1.03-5.32-1.92-5.32-1.92,0,0,4.11-1,5.17-2.21.92-1.05,1.9-6.61,1.9-6.61,0,0,1.34,5.41,2.38,6.4,1.09,1.03,4.84,2.18,4.84,2.18,0,0-3.69,1.03-4.7,2.02-1.19,1.17-2.15,7.69-2.15,7.69Z"/>
      </g>
      <g>
        <g>
          <path class="cls-6" d="M198.25,194.91l8.27-8.65,5.58,1.22,4.03,11.43c.26.74-.39,1.47-1.16,1.31l-16.19-3.54c-.81-.18-1.11-1.17-.54-1.76Z"/>
          <line class="cls-3" x1="209.48" y1="188.76" x2="209.91" y2="193.47"/>
          <line class="cls-3" x1="207.65" y1="188.36" x2="206.69" y2="190.13"/>
          <path class="cls-6" d="M286.39,113.47c-8.16,37.29-45.03,81.11-77.16,74.09s-47.34-62.24-39.19-99.53,39.51-55.9,71.64-48.87c32.13,7.03,52.86,37.02,44.7,74.32Z"/>
        </g>
        <path class="cls-5" d="M283.13,97.89c0,15.15-8.09,27.44-11.17,27.44s0-12.28,0-27.44-3.08-27.44,0-27.44,11.17,12.28,11.17,27.44Z"/>
        <ellipse class="cls-5" cx="268.48" cy="137.62" rx="5.24" ry="2.62" transform="translate(38.52 332.91) rotate(-67.48)"/>
      </g>
      <polygon class="cls-8" points="50.97 37.42 68.56 39.53 54.37 28.91 56.49 11.32 45.87 25.51 28.27 23.39 42.46 34.01 40.35 51.61 50.97 37.42"/>
      <polygon class="cls-8" points="25.88 58.08 33.6 59.5 27.62 54.42 29.03 46.7 23.95 52.68 16.23 51.27 22.22 56.35 20.81 64.07 25.88 58.08"/>
      <g>
        <g>
          <path class="cls-1" d="M96.72,199.24l1.79-9.64,4.37-1.67,7.89,6.03c.51.39.39,1.19-.21,1.42l-12.68,4.84c-.63.24-1.28-.3-1.16-.97Z"/>
          <line class="cls-2" x1="101.66" y1="189.99" x2="104.07" y2="193.02"/>
          <line class="cls-2" x1="100.23" y1="190.54" x2="100.37" y2="192.18"/>
          <path class="cls-1" d="M120.59,103.87c11.15,29.23,5.54,75.81-19.64,85.41s-60.38-21.42-71.53-50.64,2-56.05,27.18-65.65c25.18-9.6,52.85,1.66,63.99,30.88Z"/>
        </g>
        <path class="cls-5" d="M32.49,119.38c.52,10.97,6.79,19.58,9.03,19.48s-.42-8.89-.94-19.86c-.52-10.97,1.29-19.97-.94-19.86s-7.66,9.27-7.14,20.24Z"/>
        <ellipse class="cls-5" cx="46.55" cy="147.98" rx="2.62" ry="5.24" transform="translate(-53.13 29.12) rotate(-22.52)"/>
      </g>
      <g>
        <g>
          <path class="cls-9" d="M143.66,198.23l7.66-12.55h7.01l7.83,12.65c.51.82-.08,1.87-1.04,1.87h-20.34c-1.01,0-1.64-1.11-1.11-1.97Z"/>
          <line class="cls-4" x1="155.51" y1="187.91" x2="157.27" y2="193.45"/>
          <line class="cls-4" x1="153.21" y1="187.91" x2="152.53" y2="190.29"/>
          <path class="cls-9" d="M228.02,77.42c0,46.88-32.74,109.12-73.12,109.12s-73.12-62.24-73.12-109.12S114.52,0,154.9,0s73.12,30.54,73.12,77.42Z"/>
        </g>
        <path class="cls-5" d="M217.46,74.83c1.98,21.31-7.79,39.65-12.12,40.05s-1.61-17.28-3.59-38.59c-1.98-21.31-7.92-38.19-3.59-38.59s17.31,15.82,19.29,37.13Z"/>
        <ellipse class="cls-5" cx="202.65" cy="126.03" rx="5.24" ry="2.62" transform="translate(8.61 264.95) rotate(-67.48)"/>
      </g>
    </g>
  </g>
</svg>