<?xml version="1.0" encoding="UTF-8"?>
<svg id="Layer_1" xmlns="http://www.w3.org/2000/svg" viewBox="0 0 292.59 217.79">
  <defs>
    <style>
      .cls-1 {
        fill: #f2f2f2;
        stroke: #000;
        stroke-miterlimit: 10;
        stroke-width: 1.12px;
      }

      .cls-2 {
        fill: #ff6161;
      }
    </style>
  </defs>
  <g>
    <rect class="cls-1" x="27.84" y="87.55" width="89.29" height="122.77" rx="10" ry="10" transform="translate(-90.52 119.51) rotate(-53.82)"/>
    <path class="cls-2" d="M79.31,118.3c-6.8-4.97-16.34-3.49-21.32,3.31-3.58,4.9-3.82,11.22-1.12,16.23-5.53-1.11-11.46.97-15.01,5.83-4.87,6.66-3.42,16.01,3.24,20.88,2.36,1.73,5.06,2.65,7.77,2.84h0s0,0,0,0c1.17.08,2.35.02,3.51-.17l38.57-1.85-9.46-36.24c-.41-4.17-2.52-8.16-6.17-10.84Z"/>
    <path class="cls-2" d="M16.3,139.34c-1.58-1.16-3.8-.81-4.96.77-.83,1.14-.89,2.61-.26,3.78-1.29-.26-2.67.23-3.5,1.36-1.13,1.55-.8,3.73.75,4.86.55.4,1.18.62,1.81.66h0s0,0,0,0c.27.02.55,0,.82-.04l8.98-.43-2.2-8.44c-.09-.97-.59-1.9-1.44-2.52Z"/>
    <path class="cls-2" d="M134.64,144.47c-1.58-1.16-3.8-.81-4.96.77-.83,1.14-.89,2.61-.26,3.78-1.29-.26-2.67.23-3.5,1.36-1.13,1.55-.8,3.73.75,4.86.55.4,1.18.62,1.81.66h0s0,0,0,0c.27.02.55,0,.82-.04l8.98-.43-2.2-8.44c-.09-.97-.59-1.9-1.44-2.52Z"/>
  </g>
  <g>
    <rect class="cls-1" x="72.08" y="37.16" width="89.29" height="122.77" rx="10" ry="10" transform="translate(-35.5 85.77) rotate(-35.37)"/>
    <g>
      <path d="M116.37,98.04s17.06,14.63,26.19,14.31c6.53-.23-23.15,21.96-21.31,15.13,2.14-7.95-4.87-29.44-4.87-29.44Z"/>
      <circle cx="106.88" cy="84.67" r="12.24"/>
      <circle cx="127.39" cy="92.41" r="12.24"/>
      <circle cx="113.97" cy="94.66" r="12.24"/>
      <circle cx="107.42" cy="106.58" r="12.24"/>
    </g>
    <g>
      <path d="M63.14,78.55s4.67,4,7.16,3.91c1.79-.06-6.33,6.01-5.83,4.14.59-2.18-1.33-8.05-1.33-8.05Z"/>
      <circle cx="60.54" cy="74.9" r="3.35"/>
      <circle cx="66.15" cy="77.01" r="3.35"/>
      <circle cx="62.48" cy="77.63" r="3.35"/>
      <circle cx="60.69" cy="80.89" r="3.35"/>
    </g>
    <g>
      <path d="M172.05,118.41s4.67,4,7.16,3.91c1.79-.06-6.33,6.01-5.83,4.14.59-2.18-1.33-8.05-1.33-8.05Z"/>
      <circle cx="169.45" cy="114.76" r="3.35"/>
      <circle cx="175.06" cy="116.87" r="3.35"/>
      <circle cx="171.39" cy="117.49" r="3.35"/>
      <circle cx="169.6" cy="120.75" r="3.35"/>
    </g>
  </g>
  <g>
    <rect class="cls-1" x="132.61" y="8.61" width="89.29" height="122.77" rx="10" ry="10" transform="translate(-11.97 47.32) rotate(-14.71)"/>
    <polygon class="cls-2" points="170.18 43.08 158.87 74.67 184.25 96.63 195.57 65.04 170.18 43.08"/>
    <polygon class="cls-2" points="131.2 22.27 127.2 33.42 136.16 41.17 140.16 30.02 131.2 22.27"/>
    <polygon class="cls-2" points="219.85 98.09 215.85 109.24 224.81 116.99 228.81 105.84 219.85 98.09"/>
  </g>
  <g>
    <rect class="cls-1" x="200.2" y="2.23" width="89.29" height="122.77" rx="10" ry="10" transform="translate(-2.89 12.38) rotate(-2.88)"/>
    <g>
      <path d="M268.88,65.79c.35,6.99-5.03,12.94-12.02,13.29-5.04.25-9.53-2.47-11.79-6.63-1.75,4.35-5.9,7.52-10.89,7.77-6.85.34-12.68-4.93-13.02-11.78-.12-2.43.46-4.72,1.57-6.69h0s0,0,0,0c.48-.85,1.06-1.64,1.72-2.36l18.88-25.94,20.85,23.1c2.71,2.19,4.52,5.48,4.71,9.23Z"/>
      <path d="M245.18,70.27s5.15,16.95,11.35,20.6c4.44,2.61-24.69,4.8-20.58,1.04,4.79-4.38,9.23-21.64,9.23-21.64Z"/>
    </g>
    <g>
      <path d="M216.82,18.59c.1,1.96-1.41,3.63-3.37,3.73-1.41.07-2.67-.69-3.3-1.86-.49,1.22-1.65,2.11-3.05,2.18-1.92.1-3.55-1.38-3.65-3.3-.03-.68.13-1.32.44-1.88h0s0,0,0,0c.13-.24.3-.46.48-.66l5.29-7.27,5.84,6.47c.76.61,1.27,1.53,1.32,2.59Z"/>
      <path d="M210.18,19.85s1.44,4.75,3.18,5.77c1.24.73-6.92,1.34-5.77.29,1.34-1.23,2.59-6.06,2.59-6.06Z"/>
    </g>
    <g>
      <path d="M288.02,110.68c.1,1.96-1.41,3.63-3.37,3.73-1.41.07-2.67-.69-3.3-1.86-.49,1.22-1.65,2.11-3.05,2.18-1.92.1-3.55-1.38-3.65-3.3-.03-.68.13-1.32.44-1.88h0s0,0,0,0c.13-.24.3-.46.48-.66l5.29-7.27,5.84,6.47c.76.61,1.27,1.53,1.32,2.59Z"/>
      <path d="M281.38,111.94s1.44,4.75,3.18,5.77c1.24.73-6.92,1.34-5.77.29,1.34-1.23,2.59-6.06,2.59-6.06Z"/>
    </g>
  </g>
</svg>