<?xml version="1.0" encoding="UTF-8"?>
<svg id="Layer_1" xmlns="http://www.w3.org/2000/svg" viewBox="0 0 198.38 282.75">
  <path d="M152.95,172.66c2.01-.81,3.5-.43,4.99.12,3.28,1.21,5.53,2.9,7.04,6.6,2.17,5.31,5.48,10.25,9.83,14.26,4.78,4.41,10.51,5.15,16.49,3.7,4.9-1.19,7.27-5.61,7.06-11.44-.18-4.91-1.94-9.42-3.5-13.93-2.28-6.6-3.92-13.35-5.62-20.1-1.09-4.34-3.04-8.18-5.93-11.61-2.51-2.97-5.8-3.82-9.43-4.31-8.67-1.17-17.64-1.09-25.69-5.16-5.98-3.03-11.96-6.06-18.03-8.92-6.13-2.89-12.5-5.12-18.96-7.11-1.03-.32-1.57-.94-2.12-1.87-3.77-6.44-6.78-13.33-11.37-19.28-2.64-3.42-4.83-7.12-6.86-10.95-2.4-4.5-3.67-8.93-3.11-14.23,1.38-13.04,1.27-26.13-.64-39.15-.69-4.74-.52-9.58-1.88-14.26-1-3.45-2.58-6.63-3.83-9.96C79.86.95,76.72.19,72.7.02c-9.64-.4-14.92,4.99-18.61,12.94-1.85,3.97-2.73,8.1-2.93,12.48-.56,12.4.53,24.68,2.47,36.89.8,5.08.39,9.9-1.57,14.63-2.04,4.93-1.94,10.17-2.36,15.37-.42,5.24-.64,10.4.92,15.49.21.68.1,1.25-.3,1.87-2.91,4.56-4.57,9.54-4.74,14.97-.05,1.54-.66,1.98-2.2,1.66-1.98-.41-3.77.02-5.66,1.08-10.04,5.6-13.94,14.46-14.31,25.51-.4,12.09,2.88,23.44,6.53,34.73,1.46,4.52,3.8,8.64,6.05,12.8.97,1.8,2.08,2.35,4.01,1.71,3.77-1.25,7.53-2.59,11.5-3.12,3.26-.44,6.42-.22,9.51,1.07.94.4,1.64.81,1.79,1.81,1.18,7.65,6,12.92,11.53,17.73.54.47,1.4.89,1.08,1.74-.24.62-1.04.23-1.59.33-4.06.77-8.12,1.47-11.88,3.42-3.01,1.56-5.98,1.41-9.22-.2-9.31-4.62-18.05-10.53-28.64-12.3-6.83-1.14-13.33-1.52-19.28,2.89-1.74,1.29-4.55,1.54-4.77,4.22-.28,3.47,1.13,6.46,3.61,8.93,5.3,5.27,12.13,7.25,19.13,8.81,1.93.43,3.87.85,5.89.92,2.03.07,3.5,1.34,4.67,2.96,2.3,3.2,5.2,5.75,8.54,7.86,4.27,2.7,8.48,5.51,12.7,8.29,2.03,1.34,4.22,2.29,6.6,2.79,1.19.25,2.16.69,2.85,1.78.87,1.38,2.35,1.98,3.86,1.96,9.61-.14,19.1,2.19,28.73,1.31,8.56-.78,17.25-.33,25.65-2.68,1.63-.46,3.39-.47,5.08-.72,1.33-.2,1.68.34,1.74,1.65.16,3.58.88,7.08,2.19,10.41,2.7,6.88,8.71,11.58,17.49,6.72,5.19-2.87,8.87-6.78,11.91-11.9,4.8-8.09,8.38-16.9,13.75-24.57,4.5-6.44,7.92-13.6,13.13-19.56,2.26-2.59,2.18-4.68-.43-6.86-4.35-3.64-7.48-8.19-10.3-12.99-3.68-6.26-8.96-11.31-13-17.31-2.36-3.51-4.93-6.87-7.39-10.32-1.05-1.48-1.78-3.18-3.49-4.59ZM72.66,182.16c-.82-.89-1.37-1.63-2.06-2.2-4.1-3.41-7.65-7.38-11.41-11.14-2.87-2.88-5.09-6.22-6.33-10.04-3.56-10.98-5.51-22.23-5.17-33.82.13-4.29,1.22-8.38,2.94-12.3.3-.68.46-1.54,1.19-1.84,1.89-.77,1.65-2.18,1.35-3.73-2.05-10.74-1.31-21.29,2.24-31.64,1.3-3.78,1.58-7.6,1-11.55-.89-6.09-1.88-12.17-2.38-18.3-.73-8.94-1.32-17.98.7-26.81,2.67-11.64,9.72-16.9,20.25-15.87,1.66.16,2.86.72,3.54,2.26,1.41,3.19,2.94,6.3,4.03,9.64,1.49,4.58,1.43,9.34,2.09,14.02,1.87,13.24,2.19,26.52.72,39.79-.63,5.63.85,10.49,3.45,15.24,5.8,10.57,13.39,20.04,18.95,30.76.5.96,1.35,1.32,2.35,1.66,10.11,3.39,19.86,7.58,29.27,12.64,5.9,3.18,11.73,6.68,18.63,7.5,4.79.57,9.55,1.69,14.34,1.76,7.04.11,11.08,4.02,13.12,9.94,3.68,10.67,5.99,21.76,9.56,32.48,1.09,3.27.94,6.71-.05,10.09-.46,1.56-1.26,2.67-2.78,3.26-5.49,2.12-10.59,1.48-15.19-2.25-3.3-2.67-5.37-6.34-7.49-9.9-5.31-8.89-6.48-18.17-2.08-27.83.31-.68.59-1.38.81-2.09.33-1.05.67-2.44-.42-2.95-1.31-.62-1.67.94-2.19,1.77-3.06,4.89-4.26,10.21-3.83,15.96.09,1.16.8,2.86-.4,3.46-1.26.63-2.71-.41-3.9-1.15-1.05-.66-2-1.48-2.95-2.28-.89-.75-1.71-1.57-2.57-2.36-.52-.48-1.11-.83-1.77-.31-.64.5-.58,1.21-.22,1.8.52.85,1.09,1.67,1.75,2.41.85.95.68,1.39-.55,1.59-1.8.29-3.59.68-5.4.91-1.94.25-2.7,1.11-1.88,3.03,1.16,2.71.54,5.2-.99,7.55-2.17,3.34-4.32,6.7-7.04,9.66-1.16,1.27-2.23,2.67-1.62,4.91,2.98-1.95,5.37-4.3,7.22-7.01,2.72-3.98,6.32-7.67,5.9-13.12-.07-.88-.62-1.99.96-2.38,1.39-.35,2.29-.15,3.17,1.1,3.29,4.69,6.79,9.22,10.01,13.95,5.15,7.55,11.45,14.25,16,22.25,1.74,3.06,4.01,5.9,6.92,8.12,2.47,1.88,2.53,2.74.5,5.04-5.19,5.88-8.72,12.91-13.16,19.31-5.3,7.66-9.02,16.34-13.66,24.45-2.95,5.16-6.82,8.85-12.14,11.26-4.27,1.94-7.43,1.22-10.31-2.5-2.12-2.73-3.05-5.94-3.43-9.25-1.22-10.88,1.77-20.1,10.57-27.21,5.37-4.34,11.75-6.87,17.45-10.57.66-.43,1.82-.59,1.39-1.67-.34-.86-1.36-.87-2.2-.66-.72.18-1.47.39-2.1.77-3.9,2.38-8.21,4.03-11.96,6.68-.49.34-.95.99-1.97.55,1.31-4.38,1.85-8.99,6.02-12.11,2.91-2.18,5.3-5.03,8.69-6.6.67-.31,1.26-.97.97-1.82-.33-.96-1.23-.62-1.94-.59-1.19.06-2.25.48-3.26,1.11-2.89,1.82-5.74,3.68-7.83,6.47-1.29,1.73-2.27,1.59-3.06-.45-.57-1.47-1.42-2.83-1.93-4.32-1.26-3.71-2.54-7.52-1.58-11.45.71-2.92,1.28-5.84,1.75-8.79.12-.79.64-1.76-.53-2.09-1.08-.31-1.85.5-2.03,1.41-.93,4.68-3.27,9.15-2.34,14.12,1.58,8.55.52,17-.75,25.49-.98,6.56-3.53,12.61-5.35,18.9-.89,3.08-1.57,4.63-5.43,5.28-9.17,1.54-18.24,3.45-27.6,3.37-7.47-.06-14.97.48-22.33-1.3-1.8-.43-3.56-.72-5.41-.38-1.57.29-3.01-.1-3.95-1.5-.9-1.34-2.2-1.99-3.72-2.27-2.59-.49-4.83-1.71-7-3.14-4.16-2.75-8.35-5.46-12.52-8.19-3.16-2.08-5.86-4.63-7.9-7.84-1.82-2.86-1.32-5.31,1.39-7.33,4.51-3.36,9.29-2.34,14.04-.83,6.46,2.06,12.33,5.37,18.12,8.83,4.81,2.88,9.26,4.13,15.41,2.38,8.82-2.51,18.23-3.92,27.59-1.55.92.23,2.22.54,2.51-.78.24-1.13-.85-1.68-1.81-2.07-2.51-1.03-5.17-1.23-7.84-1.22-1.62,0-1.86-.65-1.34-1.98,1.11-2.87,2.23-5.73,3.29-8.62.24-.64,1.22-1.36.52-1.94-.86-.71-1.74.16-2.36.76-.58.56-.99,1.33-1.35,2.06-1.23,2.55-2.22,5.2-2.8,7.98-.17.83-.28,1.66-1.44,1.69-3.43.08-6.69,1.25-10.09,1.58-3.23.31-6.45.67-9.39,2.23-1.12.59-2.29.26-3.39-.18-6.53-2.6-12.08-7.04-18.52-9.94,2.89-.18,5.4-1.17,7.92-2.31,4.07-1.84,8.56-2.83,12.86-2.34,3.18.36,6.46,1.26,9.66,2.1,2.62.68,5.1.35,8.13-.7-3.14-1.78-6.05-1.63-8.71-2.38-6.35-1.8-11.38-5.75-15.65-10.63-6.65-7.59-8.78-16.36-6.41-26.2.17-.7.53-1.48-.5-1.91-2.71,3.19-2.7,7.04-2.56,10.87.06,1.65-.15,2.43-1.99,1.61-2.51-1.12-5.18-1.11-7.85-.9-3.85.31-7.5,1.46-11.12,2.7-1.58.55-2.38.18-3.21-1.23-2.24-3.81-4.25-7.73-5.59-11.94-3.96-12.48-7.46-25.01-5.54-38.39,1.24-8.66,6.06-14.51,13.44-18.58,2.09-1.15,5.22-.13,5.25,1.59.08,5.52,1.54,10.86,2.03,16.32,1.34,14.98,9.84,25.53,21.29,34.24,1.12.86,2.36,1.58,4.23.85ZM48.55,226.32c-2.63-.16-5.26-.43-7.9-.23-5.04.38-9.21,3.88-10.11,8.73-.29,1.57-.84,1.61-2.15,1.22-1.99-.58-4.02-1.15-6.07-1.34-6.44-.58-11.95-3.19-16.79-7.34-1.67-1.44-2.72-3.32-3.18-5.52-.29-1.38.11-2.34,1.34-3.15,5.98-3.94,12.24-5.12,19.41-3.57,9.28,2.01,17.34,6.47,25.45,11.19Z"/>
  <path d="M108.78,129.38c-.56.53-.26,1.2-.13,1.83,3.44,17.03-.09,32.79-8.68,47.63-.21.36-.45.7-.66,1.06-.52.87-1.2,1.87-.13,2.65,1.18.86,2.05-.06,2.65-1,3.45-5.5,6.78-11.1,8.14-17.55,1.42-6.75,2.71-13.53,2.78-20.48.05-4.54-.52-8.96-2.36-13.14-.52-1.18-1-1.45-1.6-.99Z"/>
  <path d="M123.29,243.28c-1.89-3.62-4.43-5.55-7.47-6.93-.44-.2-.99-.3-1.35.19-.29.38-.21.9.14,1.11,2.74,1.71,4.82,4.43,8.69,5.63Z"/>
</svg>