<?xml version="1.0" encoding="UTF-8"?>
<svg id="Layer_1" xmlns="http://www.w3.org/2000/svg" viewBox="0 0 265.05 190.48">
  <defs>
    <style>
      .cls-1 {
        fill: #32cec6;
      }

      .cls-2 {
        fill: #462b66;
      }

      .cls-3 {
        fill: #454545;
      }

      .cls-4 {
        fill: #ffa09d;
      }

      .cls-5 {
        fill: #2a9b92;
      }

      .cls-6 {
        fill: #ffb0b0;
      }

      .cls-7 {
        fill: #ea8686;
      }

      .cls-8 {
        fill: #164c47;
      }

      .cls-9 {
        fill: #fd0;
      }

      .cls-10 {
        fill: #7bdbd8;
      }
    </style>
  </defs>
  <g>
    <ellipse class="cls-3" cx="146.48" cy="155.81" rx="107.8" ry="18.9"/>
    <g>
      <polygon class="cls-6" points="83.69 136.92 47.65 81.33 90.41 34.48 126.45 90.07 83.69 136.92"/>
      <polygon class="cls-7" points="126.95 147.24 83.69 136.92 126.45 90.07 169.71 100.39 126.95 147.24"/>
      <polygon class="cls-4" points="131.2 41 90.57 34.74 126.45 90.07 169.71 100.39 131.2 41"/>
      <path class="cls-2" d="M113.38,93.28c-1.83,2-4.55,1.7-6.09-.68s-1.31-5.92.52-7.92,4.55-1.7,6.09.68,1.31,5.92-.52,7.92Z"/>
      <path class="cls-2" d="M127.99,140.13c-1.83,2-4.2,2.24-5.31.53s-.53-4.72,1.3-6.72,4.2-2.24,5.31-.53.53,4.72-1.3,6.72Z"/>
      <path class="cls-2" d="M149.89,114.56c-1.83,2-4.2,2.24-5.31.53s-.53-4.72,1.3-6.72,4.2-2.24,5.31-.53.53,4.72-1.3,6.72Z"/>
      <path class="cls-2" d="M147.99,77.27c2.09,1.5,3.1,4.31,2.27,6.27s-3.2,2.32-5.29.82-3.1-4.31-2.27-6.27,3.2-2.32,5.29-.82Z"/>
      <path class="cls-2" d="M113.98,46.68c2.15,1.35,3.29,4.07,2.54,6.09s-3.1,2.56-5.25,1.21-3.29-4.07-2.54-6.09,3.1-2.56,5.25-1.21Z"/>
      <path class="cls-2" d="M102.87,133.89c-1.83,2-4.2,2.24-5.31.53s-.53-4.72,1.3-6.72,4.2-2.24,5.31-.53.53,4.72-1.3,6.72Z"/>
      <path class="cls-2" d="M127.71,106.67c-1.83,2-4.2,2.24-5.31.53s-.53-4.72,1.3-6.72,4.2-2.24,5.31-.53.53,4.72-1.3,6.72Z"/>
      <path class="cls-2" d="M89.83,90c-1.83,2-4.55,1.7-6.09-.68s-1.31-5.92.52-7.92,4.55-1.7,6.09.68,1.31,5.92-.52,7.92Z"/>
      <path class="cls-2" d="M66.74,89.16c-1.83,2-4.55,1.7-6.09-.68s-1.31-5.92.52-7.92,4.55-1.7,6.09.68,1.31,5.92-.52,7.92Z"/>
    </g>
    <g>
      <polygon class="cls-5" points="233.31 126.89 169.83 156.89 134.4 103.15 197.87 73.15 233.31 126.89"/>
      <polygon class="cls-1" points="254.13 81.81 233.31 126.89 197.87 73.15 218.69 28.07 254.13 81.81"/>
      <polygon class="cls-10" points="150.88 60.12 134.69 103.02 197.87 73.15 218.69 28.07 150.88 60.12"/>
      <path class="cls-8" d="M197.8,87.79c1.51,2.29.54,5.19-2.17,6.47s-6.13.46-7.64-1.83-.54-5.19,2.17-6.47,6.13-.46,7.64,1.83Z"/>
      <path class="cls-8" d="M247.41,79.53c1.51,2.29,1.16,4.9-.8,5.82s-4.76-.19-6.27-2.48-1.16-4.9.8-5.82,4.76.19,6.27,2.48Z"/>
      <path class="cls-8" d="M227.71,51.76c1.51,2.29,1.16,4.9-.8,5.82s-4.76-.19-6.27-2.48-1.16-4.9.8-5.82,4.76.19,6.27,2.48Z"/>
      <path class="cls-8" d="M190.63,47.82c1.99-2.01,5-2.66,6.71-1.45s1.49,3.83-.5,5.85-5,2.66-6.71,1.45-1.49-3.83.5-5.85Z"/>
      <path class="cls-8" d="M152.2,79.65c1.85-2.11,4.81-2.9,6.6-1.77s1.75,3.76-.11,5.86-4.81,2.9-6.6,1.77-1.75-3.76.11-5.86Z"/>
      <path class="cls-8" d="M235.07,105.68c1.51,2.29,1.16,4.9-.8,5.82s-4.76-.19-6.27-2.48c-1.51-2.29-1.16-4.9.8-5.82s4.76.19,6.27,2.48Z"/>
      <path class="cls-8" d="M214.48,74.45c1.51,2.29,1.16,4.9-.8,5.82s-4.76-.19-6.27-2.48-1.16-4.9.8-5.82,4.76.19,6.27,2.48Z"/>
      <path class="cls-8" d="M188.76,112.7c1.51,2.29.54,5.19-2.17,6.47s-6.13.46-7.64-1.83-.54-5.19,2.17-6.47,6.13-.46,7.64,1.83Z"/>
      <path class="cls-8" d="M182.24,137.53c1.51,2.29.54,5.19-2.17,6.47s-6.13.46-7.64-1.83-.54-5.19,2.17-6.47,6.13-.46,7.64,1.83Z"/>
    </g>
  </g>
  <polygon class="cls-9" points="48.52 46.01 65.47 51.19 53.38 38.24 58.56 21.29 45.61 33.38 28.66 28.2 40.75 41.16 35.57 58.1 48.52 46.01"/>
  <polygon class="cls-9" points="20.19 61.93 27.54 64.68 22.55 58.63 25.29 51.28 19.24 56.27 11.89 53.52 16.89 59.57 14.14 66.92 20.19 61.93"/>
</svg>