<?xml version="1.0" encoding="UTF-8"?>
<svg id="Layer_1" xmlns="http://www.w3.org/2000/svg" viewBox="0 0 405 555">
  <defs>
    <style>
      .cls-1 {
        fill: #fff;
        stroke: #000;
        stroke-miterlimit: 10;
        stroke-width: 5px;
      }

      .cls-2 {
        fill: #ff6161;
      }
    </style>
  </defs>
  <rect class="cls-1" x="2.5" y="2.5" width="400" height="550" rx="30" ry="30"/>
  <path class="cls-2" d="M88.59,48.96c0-8.79-7.12-15.91-15.91-15.91-6.33,0-11.8,3.7-14.36,9.05-2.47-5.34-7.88-9.05-14.15-9.05-8.61,0-15.58,6.98-15.58,15.58,0,3.05.88,5.89,2.39,8.29h0,0c.65,1.04,1.43,2,2.3,2.85l25.31,31.33,24.68-30.28c3.26-2.91,5.32-7.15,5.32-11.87Z"/>
  <path class="cls-2" d="M383.04,490.4c0-8.79-7.12-15.91-15.91-15.91-6.33,0-11.8,3.7-14.36,9.05-2.47-5.34-7.88-9.05-14.15-9.05-8.61,0-15.58,6.98-15.58,15.58,0,3.05.88,5.89,2.39,8.29h0,0c.65,1.04,1.43,2,2.3,2.85l25.31,31.33,24.68-30.28c3.26-2.91,5.32-7.15,5.32-11.87Z"/>
</svg>