<?xml version="1.0" encoding="UTF-8"?>
<svg id="Layer_1" xmlns="http://www.w3.org/2000/svg" viewBox="0 0 609.4 533.49">
  <defs>
    <style>
      .cls-1 {
        fill: #a26ef4;
      }
    </style>
  </defs>
  <path class="cls-1" d="M296.27,533.49c-30.51-.94-58.03-10.14-82.36-28.62-13.76-10.45-28.03-20.18-43.04-28.96-19.54-11.43-40.68-11.35-61.84-8.82-48.52,5.79-89.95-26.7-93.51-74.53-1.03-13.84,1.71-27.48,8.67-39.42,20.18-34.63,15.29-67.29-5.94-99.41C5.19,233.97-.9,212.46.11,188.53c1.92-45.72,40.98-87.74,87.47-94.13,21.35-2.94,41.72,1.91,62.44,4.22,24.7,2.76,49.46,4,74.16,1.87,32.36-2.78,58.65-18.48,81.78-39.88,13.45-12.45,26.26-25.59,39.67-38.01,23.67-21.93,52.18-28.28,83.17-17.37,29.27,10.3,46.51,31.43,52.44,61.29,2.57,12.93,1.99,26.09,1.45,39.1-1.57,37.94,14.19,67.71,43.6,91.23,12.22,9.77,24.55,19.47,37.35,28.49,64.23,45.23,60.09,142.15-7.72,182-15.57,9.15-32.44,13.42-50.07,15.98-27.87,4.04-54.53,11.08-75.2,31.49-10.34,10.21-20.65,20.52-30.25,31.39-27.5,31.13-62.29,46.43-104.12,47.3Z"/>
</svg>