<?xml version="1.0" encoding="UTF-8"?>
<svg id="Layer_1" xmlns="http://www.w3.org/2000/svg" viewBox="0 0 621.95 581.8">
  <defs>
    <style>
      .cls-1 {
        fill: #a26ef4;
      }
    </style>
  </defs>
  <path class="cls-1" d="M27.76,374.23c-1.09-17.09,4.04-33.07,8.6-49.16,4.19-14.79,8-29.68,9.57-45.02,2.47-24.14-6.03-45.52-16.7-66.44-9.03-17.72-19.56-34.69-24.93-54.22C-15.06,88.91,33.05,13.54,105.26,1.87c33-5.33,63.57.71,92.14,18.51,15.06,9.38,30.78,17.75,46.91,25.35,32.4,15.26,65.35,15.57,99.36,6.42,26.61-7.16,51.92-18.11,78.33-25.68,93.22-26.73,189.27,38.84,199.07,135.29,3.83,37.71-5.05,72.09-25.08,103.98-18.51,29.47-35.69,59.61-47.61,92.53-9.74,26.87-10.47,53.69-1.76,80.81,4.78,14.87,10.45,29.5,14.4,44.59,8.64,32.99-4.58,66.04-33.16,85.27-26.47,17.81-63.34,17.16-89.7-2.07-7.59-5.54-14.25-12.33-21.4-18.48-20.02-17.21-39.7-34.9-64.1-46.03-17.37-7.92-35.53-12.34-54.64-13.2-40.66-1.83-80.7,3.49-120.54,10.59-70.98,12.64-138.13-35.46-148.73-106.96-.9-6.1-.69-12.36-.99-18.55Z"/>
</svg>