<?xml version="1.0" encoding="UTF-8"?>
<svg id="Layer_1" xmlns="http://www.w3.org/2000/svg" viewBox="0 0 643.22 490.21">
  <defs>
    <style>
      .cls-1 {
        fill: #a26ef4;
      }
    </style>
  </defs>
  <path class="cls-1" d="M190.07,56.24c14.13-.52,37.54,7.51,61.52,11.99,21.99,4.11,44.03,6.85,66.4,3.4,23.7-3.66,38.87-19.67,52.49-37.26,15.72-20.31,35.67-31.7,61.36-34.09,40.3-3.76,81.92,31.88,83.63,72.33.43,10.09-.28,20.04-2.21,30-5,25.8.7,48.23,20.46,66.82,14.31,13.47,29.9,25.2,45.6,36.86,34.15,25.36,55.11,59.13,61.8,100.98,14.18,88.6-45.23,166.09-127.84,180.38-53.4,9.24-99.12-6.83-138.53-43.18-13.8-12.73-28.65-24.22-45.41-32.94-16.65-8.66-34.34-10.99-52.96-9.69-23.71,1.66-46.61,7.73-69.91,11.56-74,12.17-150.47-26.12-185.18-92.68C-17.62,246.09-2.33,157.52,60.07,101.97c33.75-30.05,73.98-44.82,130-45.73Z"/>
</svg>