<?xml version="1.0" encoding="UTF-8"?>
<svg id="Layer_1" xmlns="http://www.w3.org/2000/svg" viewBox="0 0 406.85 556.28">
  <defs>
    <style>
      .cls-1 {
        fill: #fff;
        stroke: #000;
        stroke-miterlimit: 10;
        stroke-width: 5px;
      }
    </style>
  </defs>
  <rect class="cls-1" x="3.42" y="3.14" width="400" height="550" rx="30" ry="30" transform="translate(-1.05 .77) rotate(-.22)"/>
  <g>
    <path d="M310.54,292.84c.12,31.36-25.2,56.87-56.56,56.99-22.59.09-42.15-13.04-51.36-32.11-8.75,19.1-27.98,32.41-50.37,32.49-30.72.12-55.71-24.69-55.83-55.41-.04-10.88,3.06-21.03,8.43-29.63h0s0,0,0,0c2.32-3.71,5.06-7.13,8.17-10.19l89.89-112.15,88.48,107.72c11.69,10.35,19.08,25.45,19.15,42.29Z"/>
    <path d="M203.53,307.97s19.5,76.94,46.51,94.55c19.33,12.61-111.49,16.32-92.3.35,22.36-18.6,45.79-94.9,45.79-94.9Z"/>
  </g>
  <g>
    <path d="M87.39,70.81c.03,8.79-7.06,15.94-15.85,15.97-6.33.02-11.81-3.65-14.39-9-2.45,5.35-7.84,9.08-14.11,9.1-8.61.03-15.61-6.92-15.64-15.53-.01-3.05.86-5.89,2.36-8.3h0s0,0,0,0c.65-1.04,1.42-2,2.29-2.86l25.19-31.43,24.79,30.19c3.27,2.9,5.35,7.13,5.37,11.85Z"/>
    <path d="M57.41,75.04s5.47,21.56,13.03,26.5c5.42,3.53-31.24,4.57-25.86.1,6.27-5.21,12.83-26.59,12.83-26.59Z"/>
  </g>
  <g>
    <path d="M386.84,497.73c.03,8.79-7.06,15.94-15.85,15.97-6.33.02-11.81-3.65-14.39-9-2.45,5.35-7.84,9.08-14.11,9.1-8.61.03-15.61-6.92-15.64-15.53-.01-3.05.86-5.89,2.36-8.3h0s0,0,0,0c.65-1.04,1.42-2,2.29-2.86l25.19-31.43,24.79,30.19c3.27,2.9,5.35,7.13,5.37,11.85Z"/>
    <path d="M356.86,501.97s5.47,21.56,13.03,26.5c5.42,3.53-31.24,4.57-25.86.1,6.27-5.21,12.83-26.59,12.83-26.59Z"/>
  </g>
</svg>