<?xml version="1.0" encoding="UTF-8"?>
<svg id="Layer_1" xmlns="http://www.w3.org/2000/svg" viewBox="0 0 406.85 556.28">
  <defs>
    <style>
      .cls-1 {
        fill: #fff;
        stroke: #000;
        stroke-miterlimit: 10;
        stroke-width: 5px;
      }
    </style>
  </defs>
  <rect class="cls-1" x="3.42" y="3.14" width="400" height="550" rx="30" ry="30" transform="translate(-1.05 .77) rotate(-.22)"/>
  <g>
    <path d="M87.39,70.81c.03,8.79-7.06,15.94-15.85,15.97-6.33.02-11.81-3.65-14.39-9-2.45,5.35-7.84,9.08-14.11,9.1-8.61.03-15.61-6.92-15.64-15.53-.01-3.05.86-5.89,2.36-8.3h0s0,0,0,0c.65-1.04,1.42-2,2.29-2.86l25.19-31.43,24.79,30.19c3.27,2.9,5.35,7.13,5.37,11.85Z"/>
    <path d="M57.41,75.04s5.47,21.56,13.03,26.5c5.42,3.53-31.24,4.57-25.86.1,6.27-5.21,12.83-26.59,12.83-26.59Z"/>
  </g>
  <g>
    <path d="M386.84,497.73c.03,8.79-7.06,15.94-15.85,15.97-6.33.02-11.81-3.65-14.39-9-2.45,5.35-7.84,9.08-14.11,9.1-8.61.03-15.61-6.92-15.64-15.53-.01-3.05.86-5.89,2.36-8.3h0s0,0,0,0c.65-1.04,1.42-2,2.29-2.86l25.19-31.43,24.79,30.19c3.27,2.9,5.35,7.13,5.37,11.85Z"/>
    <path d="M356.86,501.97s5.47,21.56,13.03,26.5c5.42,3.53-31.24,4.57-25.86.1,6.27-5.21,12.83-26.59,12.83-26.59Z"/>
  </g>
</svg>