<?xml version="1.0" encoding="UTF-8"?>
<svg id="Layer_1" xmlns="http://www.w3.org/2000/svg" viewBox="0 0 313.44 328.29">
  <defs>
    <style>
      .cls-1 {
        fill: #fd0;
      }
    </style>
  </defs>
  <path class="cls-1" d="M200.54,287.8s-11.16-101.97-29.48-119.75c-17.36-16.84-82.57-33.15-82.57-33.15,0,0,65.18-13.43,82.57-31.95C186.13,86.91,204.54,0,204.54,0c0,0,18.11,85.86,33.95,101.95,16.54,16.8,74.95,36.95,74.95,36.95,0,0-58.64,14.15-74.93,29.15-19.29,17.76-37.97,119.75-37.97,119.75Z"/>
  <path class="cls-1" d="M52.7,328.29s-5.25-47.96-13.87-56.33c-8.16-7.92-38.84-15.59-38.84-15.59,0,0,30.66-6.32,38.84-15.03,7.09-7.55,15.75-48.43,15.75-48.43,0,0,8.52,40.39,15.97,47.95,7.78,7.9,35.25,17.38,35.25,17.38,0,0-27.58,6.66-35.25,13.71-9.07,8.35-17.86,56.33-17.86,56.33Z"/>
  <path class="cls-1" d="M111.79,106.41s-2.99-27.28-7.89-32.03c-4.64-4.51-22.09-8.87-22.09-8.87,0,0,17.43-3.59,22.09-8.55,4.03-4.29,8.96-27.54,8.96-27.54,0,0,4.84,22.97,9.08,27.27,4.42,4.49,20.05,9.88,20.05,9.88,0,0-15.69,3.78-20.04,7.8-5.16,4.75-10.16,32.03-10.16,32.03Z"/>
</svg>