<?xml version="1.0" encoding="UTF-8"?>
<svg id="Layer_1" xmlns="http://www.w3.org/2000/svg" viewBox="0 0 224.06 272.11">
  <path d="M170.63,187.78c-7.55-2.02-14.54-6.78-22.48-9.24-2.08-.65-3.34-.95-4.03,1.6-1.95,7.11-6.88,12.7-10.08,19.19-1.59,3.22-3.9,6.06-7.3,7.69-1.45.69-1.53,1.45-.15,2.23,8.92,4.99,16.73,11.61,25.15,17.35,4.71,3.21,9.53,6.44,13.74,10.42,1.91,1.81,4.32,3.13,6.62,4.49,2.74,1.61,4.46,4.01,4.75,7.02.88,9.29-2.83,17.54-14.17,16.72-8.71-.63-15.93-5.02-23.37-9.12-13.37-7.37-25.65-16.3-37.84-25.39-1.4-1.04-1.96-.59-2.67.58-2.69,4.45-6.17,8.32-9.55,12.22-5.62,6.47-13.46,8.41-21.55,9.35-5.96.69-11.9,1.84-17.96,1.52-2.25-.12-3.66,1.02-4.62,3.12-3.7,8.12-5.1,7.27-12.21,7.14-10.69-.2-18.35-6.05-24.31-14.37-3.32-4.64-6.12-9.71-7.43-15.28-1.8-7.64-1.19-15.44-.25-23.16.35-2.9,1.24-5.72,2.21-8.49.65-1.84,1.83-3.13,3.51-4.07,5.05-2.85,10.47-4.8,15.97-6.58,4.2-1.36,8.39-2.78,12.6-4.12,1.16-.37,1.4-1.31,1.76-2.25,3.17-8.39,7.24-16.35,11.31-24.32,1.45-2.83,3.82-4.86,5.83-7.16,3.16-3.6,4.74-8.42,8.49-11.39,3.79-3.01,4.23-7.18,5.55-11.31,2.63-8.24,6.53-15.93,13.21-21.83,2.13-1.88,4.28-3.74,6.3-5.73,6.45-6.41,11.87-13.48,15-22.22,1.74-4.85,4.95-8.76,10.41-9.97.95-.21,1.12-.89,1.48-1.51,4.48-7.65,8.89-15.35,11.5-23.9,1.1-3.61,2.4-7.13,4.49-10.32,1.21-1.84,2.44-3.67,4.59-4.47,7.36-2.72,13.8-7.15,20.46-11.12,6.09-3.63,12.09-7.37,18.37-10.69,3.82-2.02,7.34-4.62,11-6.95,3.24-2.06,6.78-3.26,10.62-3.46,2.93-.15,5.41,1.87,5.08,4.62-1.34,11.27-3.27,22.4-10.65,31.64-3.54,4.43-8.2,7.55-12.83,10.71-3.24,2.21-6.49,4.44-9.51,6.93-3.68,3.03-7.5,5.86-11.41,8.54-2.83,1.93-3.31,4.9-4.37,7.65-.45,1.18.67,1.13,1.38,1.11,3.34-.08,6.67.31,10.02-.02,6.23-.61,12.34.34,18.38,1.74,1.61.37,2.86.37,4.07-.95,1.35-1.47,2.98-2.69,4.34-4.16,4.16-4.48,9.48-7.13,15.03-9.21,6.51-2.44,12.3.79,14.16,7.55,2.07,7.53.1,14.64-2.84,21.44-3.46,8-8.22,15.28-14.19,21.68-4.91,5.25-10.49,9.6-17.81,10.94-1.52.28-2.05,1.28-2.71,2.28-2.17,3.26-4.38,6.51-6.39,9.87-2.8,4.68-6.79,8.44-9.82,12.95-2.71,4.04-2.92,4.05,1.22,6.39,7.19,4.08,14.37,8.2,21.73,11.95,8.4,4.28,14.67,10.57,19.19,18.73.62,1.12.03,2.11-.69,2.97-3.53,4.21-7.79,6.84-13.54,6.92-7.76.11-15.06-1.83-22.76-4.52ZM101.26,176.9c.39-.78.59-1.34.93-1.81.88-1.23,1.56-3.82,2.99-3.07,1.59.84-.31,2.69-.83,4.06-.5,1.33-1,2.66-1.49,4-.27.74-.24,1.48.03,2.21,3.58,9.59,8.07,18.46,17.99,23.13.67.32,1.34.95,2.07.33,1.95-1.68,4.4-2.64,6.05-4.83,3.13-4.18,5.05-9.05,8.07-13.29,1.97-2.77,2.86-6.01,3.73-9.27.48-1.8-.01-2.48-1.67-3.13-7.88-3.11-15.98-5.53-24.05-8.09-6.35-2.01-12.18-1.53-18.2.35-2.48.78-4.89,1.74-7.34,2.62-.62.23-1.34.66-1.8-.09-.54-.87.19-1.38.81-1.82.34-.24.73-.42,1.11-.59,4.69-2.08,9.52-3.74,14.61-4.51,2.41-.37,4.85-.49,7.25.04,12.31,2.73,24.18,6.85,35.8,11.69,5.02,2.09,10.17,3.82,15.07,6.26,8.98,4.48,18.49,7.46,28.6,8.05,3.42.2,6.87.11,9.8-2.25,4.13-3.35,3.97-3.2,1.25-7.67-3.57-5.87-8.5-10.06-14.58-13.06-6.83-3.38-13.54-7.06-20.06-10.94-15.28-9.1-31.26-16.44-48.28-21.55-1.11-.33-2.13-.98-3.23-1.38-3.21-1.16-6.3-2.6-9.82-2.89-4.3-.35-7.59,1.83-10.96,3.78-6.37,3.68-12.94,6.45-20.44,7.09-3.86.33-7.39,2.01-10.02,5.53-2.06,2.76-3.54,6.03-6.76,8.38,1.74-.14,3.05-.3,4.36-.31.8,0,1.95-.02,1.94,1.06-.01,1.04-1.13.68-1.82.75-5.86.61-10.22,3.27-12.74,8.82-4.29,9.45-9.06,18.69-12.29,28.6-.44,1.34-1.16,2.6-1.74,3.9-.54,1.21-1.7,2.1-2.75,1.67-1.26-.51-.04-1.7.09-2.58.23-1.56,1.86-2.7,1.49-4.55-1.09.41-2.03.74-2.95,1.1-6.62,2.6-13.37,4.81-19.93,7.66-4.37,1.9-6.43,4.31-7.13,8.8-1.99,12.72-2.65,25.15,4.74,36.68,6.06,9.46,13.6,16.26,25.69,16.23,3.26,0,5.28-1.62,6.15-4.19,1.74-5.13,6.44-6.51,10.31-6.56,5.39-.07,10.65-.85,15.97-1.15,14.18-.8,22.2-10.03,29.13-20.87.55-.86.45-1.42-.28-2.17-7.1-7.28-14.69-13.92-23.88-18.5-1.01-.5-2.59-1.18-1.97-2.47.64-1.35,2.21-.59,3.41-.28.08.02.17.04.23.09,5.52,3.73,11.88,6.23,16.49,11.32,3.65,4.03,7.86,7.47,12.18,10.76,12.54,9.54,25.39,18.61,39.1,26.44,6.2,3.54,12.35,7.07,19.58,8.18,10.8,1.66,14.1-7.01,12.38-14.74-.32-1.42-1.19-2.56-2.44-3.39-3.75-2.51-7.39-5.17-10.97-7.92-7.56-5.81-15.5-11.14-23.17-16.81-7.56-5.58-15.73-10.23-23.35-15.71-2.46-1.77-4.93-3.52-6.39-6.28-2.55-4.82-5.14-9.62-6.95-14.78-1.03-2.92-2.08-5.85-2.48-8.95-.1-.76-.05-1.63.96-1.74.94-.1.93.76,1.11,1.38.3,1.03.4,2.13,1.29,3.28ZM71.33,130.89c-.58,1.74-1.15,3.23-1.57,4.76-.44,1.62.03,2.53,1.89,1.87,1.44-.51,2.96-.52,4.44-.74,4.13-.62,8.27-1.17,11.97-3.45,2.63-1.63,5.53-2.82,8.18-4.42,5.03-3.04,10.27-3.3,15.68-1.4,1.52.54,2.46.16,3.47-1.02,4.79-5.59,9.92-10.83,15.81-15.31,1.41-1.07,2.22-2.71,2.82-4.39.45-1.24.34-1.93-1.26-2.24-2.87-.55-5.67-1.44-8.65-1.3-.61.03-1.55.11-1.67-.69-.11-.68.68-1.1,1.23-1.46,1.64-1.06,3.56-1.34,5.33-.84,5.95,1.7,12.03,2.04,18.15,2.17,7.85.17,15.67,1.03,23.56-.1,6.45-.93,12.9-2.13,19.46-2.16,2.03-.01,3.96-.71,5.75-1.67,3.5-1.88,5.67-7.16,4.09-10.33-1.53-3.08-3.4-5.9-6.58-7.7-9.05-5.11-18.9-6.45-29.06-6.38-6.36.04-12.74.57-19.08.23-9.74-.53-19.41.52-29.12.62-4.31.04-7.52,2.08-9.58,5.85-.88,1.61-1.79,3.24-2.44,4.95-3.51,9.26-9.57,16.67-16.94,23-7.2,6.19-13.03,13.22-15.9,22.14ZM179.35,121.07c-3.24.65-5.83.89-8.32-.03-.83-.3-1.96-.82-1.77-1.83.16-.87,1.35-.96,2.16-.89,3.31.31,6.5-.54,9.74-.84,5.06-.46,9.35-2.55,13.47-5.59,4.15-3.07,7.12-7.08,10.19-11,4.46-5.71,7.78-12.14,9.97-19.03,1.54-4.85,2.75-9.89,1.13-15.06-1.02-3.26-3.6-5.62-6.58-5.72-2.22-.08-4.26.7-6.26,1.65-5.19,2.46-9.92,5.52-13.96,9.67-1.28,1.31-1.44,1.7.43,2.38,5.31,1.95,9.5,5.13,12.65,10.11,3.41,5.39,1.07,14.41-5.73,16.98-2.37.9-4.79,1.48-7.33,1.62-2.34.13-4.72.09-7.01.51-10.92,2.03-21.91,2.86-32.98,1.86-2.1-.19-2.95.61-3.58,2.52-1.36,4.12-1.89,8.54-4.31,12.29-.34.53-.45,1.57-1.25,1.3-.89-.3-.47-1.31-.39-1.99.41-3.69,1.74-7.15,2.9-10.64,1.21-3.66,1.23-3.55-2.62-3.82-1.74-.12-2.53.27-2.81,2.1-.34,2.21-1.64,4.1-3.3,5.52-5.26,4.53-10.33,9.22-14.75,14.63-1.4,1.71-1.28,2.1.65,2.74,5.48,1.84,10.91,3.81,16.37,5.71,7.94,2.76,15.27,6.84,22.76,10.58,1.09.54,1.6.6,2.33-.63,2.1-3.52,4.65-6.72,7.4-9.79,4.02-4.48,7.32-9.51,10.81-15.31ZM193.92,22.76c1.86-5.57,2.83-10.58,3.6-15.63.61-3.97-.41-4.86-4.34-4.05-.65.14-1.28.4-1.93.55-3.05.68-5.42,2.65-7.88,4.33-7.49,5.11-15.78,8.8-23.39,13.7-6.61,4.26-13.2,8.74-20.48,11.71-4.93,2.02-7.55,5.53-9.01,10.03-2.94,9.06-6.77,17.65-11.86,25.7-1.68,2.66-1.6,2.83,1.48,2.72,8.2-.28,16.38-1.03,24.59-.52,4.18.26,5-.52,5.6-4.72.06-.41-.07-.85.02-1.25.54-2.25,1.5-4.41,3.6-5.45,1.6-.79,2.99-1.8,4.43-2.78,6.5-4.44,12.39-9.7,19.09-13.88,8.06-5.03,14.21-11.7,16.47-20.47Z"/>
</svg>