<?xml version="1.0" encoding="UTF-8"?>
<svg id="Layer_1" xmlns="http://www.w3.org/2000/svg" viewBox="0 0 290.92 346.18">
  <defs>
    <style>
      .cls-1 {
        fill: #ffa09d;
      }

      .cls-2 {
        fill: #fd0;
      }

      .cls-3 {
        fill: none;
        stroke: #69088e;
        stroke-linecap: round;
        stroke-linejoin: round;
        stroke-width: 2.64px;
      }
    </style>
  </defs>
  <g>
    <path class="cls-2" d="M247.41,112.37s-5.25-36.27-12.01-42.39c-6.4-5.8-29.89-10.81-29.89-10.81,0,0,23.1-5.6,29.08-12.43,5.18-5.91,10.68-37.17,10.68-37.17,0,0,7.53,30.43,13.38,35.98s27.21,12.26,27.21,12.26c0,0-20.76,5.78-26.39,11.33-6.67,6.58-12.07,43.22-12.07,43.22Z"/>
    <path class="cls-2" d="M195.13,128.66s-2.47-17.06-5.65-19.94c-3.01-2.73-14.06-5.09-14.06-5.09,0,0,10.87-2.63,13.68-5.85,2.44-2.78,5.02-17.48,5.02-17.48,0,0,3.54,14.31,6.29,16.92,2.88,2.72,12.8,5.77,12.8,5.77,0,0-9.76,2.72-12.41,5.33-3.14,3.09-5.68,20.33-5.68,20.33Z"/>
    <path class="cls-2" d="M213.48,48.72s-1.4-9.7-3.21-11.34c-1.71-1.55-7.99-2.89-7.99-2.89,0,0,6.18-1.5,7.78-3.32,1.39-1.58,2.86-9.94,2.86-9.94,0,0,2.01,8.14,3.58,9.62,1.64,1.55,7.28,3.28,7.28,3.28,0,0-5.55,1.55-7.06,3.03-1.78,1.76-3.23,11.56-3.23,11.56Z"/>
  </g>
  <g>
    <path class="cls-1" d="M247.17,149.18c-2.8-4.37-7.38-4.48-11.77-3.88-7.46,1.01-13.39,5.22-18.71,10.22-7.98,7.5-15.42,15.53-22.42,23.97-1.07,1.29-1.68,3.73-3.63,3.32-2.2-.46-2.13-3.09-2.6-4.89-2.91-11.1-3.82-22.27-2.59-33.79,1.01-9.46-3.37-13.88-12.82-14.17-2.55-.08-3.98-.77-5.32-2.81-2.98-4.5-6.52-8.66-12.62-7.84-6.44.86-8.58,6.15-10.37,11.46-.91,2.7-1.57,5.48-2.52,8.16-2.85,8.05-5.64,16.12-10.61,23.22-8.21,11.72-20.42,17.56-33.15,22.55-22.17,8.7-39.88,22.48-51.26,43.83-7.48,14.04-18.25,25.24-31.81,33.36-8.14,4.87-12.14,11.05-10.88,19.04.01,24.89,12.03,44.72,32.35,56.33,10.06,5.75,18.97,5.12,28-1.75,9.23-7.03,18.65-13.8,27.96-20.71,2.47-1.83,4.83-3.59,8.17-3.75,5.67-.26,11.37-.65,16.99-1.44,21-2.96,42.13-5.05,62.11-13.16,10.28-4.17,15.09-10.99,15.17-21.99.1-12.68.89-25.36,1.25-38.05.1-3.39,1.02-6.34,2.75-9.28,10.16-17.18,21.54-33.52,33.71-49.32,4.14-5.37,8.67-10.44,12.71-15.88,2.8-3.77,4.91-8.06,1.9-12.75ZM143.45,199.83c8.68-5.85,14.13-19.59,14.13-19.59-.39,3.81,3.53,19.59,3.53,19.59,0,0-21.33,2.47-17.67,0Z"/>
    <g>
      <path class="cls-3" d="M124.93,245.85c-11.61,1.03-22.73-1.27-33.5-5.31-11.2-4.19-15.24-9.91-15.19-19.68.03-5.88,2.11-10.02,9.02-11.71,6.66,2.76,14.05,6.96,21.99,8.8,8.92,2.08,18.32,2.37,27.54,2.81,9.27.44,14.53,3.22,17.61,11.97,2,5.67,2.89,11.76,4.02,17.71.7,3.68.92,7.44,1.36,11.17"/>
      <path class="cls-3" d="M91.43,240.54c-4.38.66-10.88,1.57-15.11,2.76-15.9,4.45-26.2,14.62-30.26,30.82-.39,1.55-.87,3.07-1.31,4.6"/>
      <path class="cls-3" d="M166.99,134.09c-9.84,11.32-9.66,25.02-9.05,39.43-5.72.16-10.44-1.68-14.61-5.25"/>
      <path class="cls-3" d="M166.99,205.09c5.79,6.83,6.27,15.73,9.16,23.68,2.37,6.51,4.42,13.13,6.61,19.71"/>
      <path class="cls-3" d="M126.25,199.83c-7.67-1.97-15.36-3.86-23-5.93-13.01-3.53-23.97,4.49-22.35,16.45"/>
      <path class="cls-3" d="M191.97,189.31c3.13,8.72,5.94,17.55,5.16,26.95-.31,3.77-1.66,7.46-2.54,11.18"/>
      <path class="cls-3" d="M52.64,297.12c9.36,8.44,20.2,13.53,32.86,14.46"/>
      <path class="cls-3" d="M181.45,135.4c-7.54-.79-9.51.8-10.52,8.55-1.24,9.56,1.48,14.43,9.2,16.43"/>
      <path class="cls-3" d="M86.16,198.51c8.25,8.18,12.61,8.7,21.69,2.63"/>
      <path class="cls-3" d="M93.38,213.63c-.66,2.63-.68,7.01-2.1,7.52-2.84,1.03-6.48.16-9.71-.39-1.42-.25-2.65-1.65-3.96-2.52"/>
      <path class="cls-3" d="M142.02,199.83c-4.38.44-11.18,1.1-15.77,0"/>
      <path class="cls-3" d="M197.22,184.05c3.94,3.94,7.89,7.89,11.83,11.83"/>
      <path class="cls-3" d="M119.02,247.16c2.41,3.07,4.82,6.14,7.23,9.2"/>
      <path class="cls-3" d="M218.26,165.64c2.63,2.19,5.26,4.38,7.89,6.57"/>
      <path class="cls-3" d="M56.58,305.01c2.19,2.19,4.38,4.38,6.57,6.57"/>
      <path class="cls-3" d="M122.63,252.38c-.44,1.97-1.86,5.96-2.3,7.93"/>
      <path class="cls-3" d="M157.92,172.84c.22,1.1-.56,6.3-.34,7.4"/>
    </g>
  </g>
</svg>