<?xml version="1.0" encoding="UTF-8"?>
<svg id="Layer_1" xmlns="http://www.w3.org/2000/svg" viewBox="0 0 405 555">
  <defs>
    <style>
      .cls-1 {
        fill: #fff;
        stroke: #000;
        stroke-miterlimit: 10;
        stroke-width: 5px;
      }

      .cls-2 {
        fill: #ff6161;
      }
    </style>
  </defs>
  <rect class="cls-1" x="2.5" y="2.5" width="400" height="550" rx="30" ry="30"/>
  <path class="cls-2" d="M331.35,221.15c0-37.74-30.59-68.33-68.33-68.33-27.19,0-50.67,15.88-61.67,38.88-10.61-22.95-33.83-38.88-60.77-38.88-36.97,0-66.94,29.97-66.94,66.94,0,13.1,3.77,25.3,10.27,35.62h0,0c2.81,4.47,6.13,8.57,9.88,12.24l108.69,134.57,106-130.05c14.02-12.51,22.85-30.71,22.85-50.98Z"/>
  <path class="cls-2" d="M88.59,48.96c0-8.79-7.12-15.91-15.91-15.91-6.33,0-11.8,3.7-14.36,9.05-2.47-5.34-7.88-9.05-14.15-9.05-8.61,0-15.58,6.98-15.58,15.58,0,3.05.88,5.89,2.39,8.29h0,0c.65,1.04,1.43,2,2.3,2.85l25.31,31.33,24.68-30.28c3.26-2.91,5.32-7.15,5.32-11.87Z"/>
  <path class="cls-2" d="M383.04,490.4c0-8.79-7.12-15.91-15.91-15.91-6.33,0-11.8,3.7-14.36,9.05-2.47-5.34-7.88-9.05-14.15-9.05-8.61,0-15.58,6.98-15.58,15.58,0,3.05.88,5.89,2.39,8.29h0,0c.65,1.04,1.43,2,2.3,2.85l25.31,31.33,24.68-30.28c3.26-2.91,5.32-7.15,5.32-11.87Z"/>
</svg>