<?xml version="1.0" encoding="UTF-8"?>
<svg id="Layer_1" xmlns="http://www.w3.org/2000/svg" viewBox="0 0 601.95 480.4">
  <defs>
    <style>
      .cls-1 {
        fill: #a26ef4;
      }
    </style>
  </defs>
  <path class="cls-1" d="M505.17,460.64c-29.96,9.39-60.3,14.18-91.46,6.35-15.36-3.86-29.39-11.07-43.7-17.66-27.98-12.87-57.15-13.05-86.47-6.1-18.94,4.49-36.8,12.31-53.64,22.04-44.9,25.95-83.02,16.78-118.04-14.3-19.24-17.08-34.31-37.37-41.18-62.56-4.72-17.31-4.33-35.3-3.78-53.06,1.38-44.46-12.73-83.07-42-116.44-7.48-8.53-15.34-17.11-20.14-27.42-8.04-17.26-5.23-34.94,3.48-50.76,10.66-19.37,25.47-34.91,48.2-41.01,11.34-3.05,22.06-.4,32.95,1.22,30.73,4.59,57.47-2.46,80.5-24.35,11.88-11.29,24.94-21.53,42.3-24.45,19.28-3.25,36.3,1.13,52.14,12.02,8.32,5.72,16.94,10.66,27.13,12.81,16.89,3.57,32.06-.84,45.57-10.15,20.35-14.03,39.6-29.76,61.52-41.32,19.33-10.2,38.36-21.64,60.68-24.49,19.57-2.5,38.94-.37,57.28,6.38,24.08,8.85,45.46,21.97,60.67,43.69,11.98,17.1,17.74,35.9,18.07,56.57.36,22.33-3.1,43.83-14.56,63.38-16.35,27.91-12.39,54.43,1.79,82.36,25.44,50.11,26.72,101.38-.74,151.4-10.21,18.61-26.62,31.89-45.35,42.23-10.03,5.54-20.22,10.37-31.23,13.61Z"/>
</svg>